<svg width="131" height="51" viewBox="0 0 131 51" fill="none" xmlns="http://www.w3.org/2000/svg">
<rect x="130.5" y="50.5" width="130" height="50" rx="24.5" transform="rotate(-180 130.5 50.5)" stroke="url(#paint0_linear_180_1299)"/>
<path d="M92.5 25.5H113L104 32.5" stroke="white" stroke-width="2"/>
<rect x="118.5" y="40.5" width="29" height="29" rx="14.5" transform="rotate(-180 118.5 40.5)" stroke="url(#paint1_linear_180_1299)"/>
<path d="M46.658 31H44.838L40.717 24.773V31H38.897V21.913H40.717L44.838 28.153V21.913H46.658V31ZM55.1516 27.243C55.1516 27.503 55.1342 27.737 55.0996 27.945H49.8346C49.8779 28.465 50.0599 28.8723 50.3806 29.167C50.7012 29.4617 51.0956 29.609 51.5636 29.609C52.2396 29.609 52.7206 29.3187 53.0066 28.738H54.9696C54.7616 29.4313 54.3629 30.0033 53.7736 30.454C53.1842 30.896 52.4606 31.117 51.6026 31.117C50.9092 31.117 50.2852 30.9653 49.7306 30.662C49.1846 30.35 48.7556 29.9123 48.4436 29.349C48.1402 28.7857 47.9886 28.1357 47.9886 27.399C47.9886 26.6537 48.1402 25.9993 48.4436 25.436C48.7469 24.8727 49.1716 24.4393 49.7176 24.136C50.2636 23.8327 50.8919 23.681 51.6026 23.681C52.2872 23.681 52.8982 23.8283 53.4356 24.123C53.9816 24.4177 54.4019 24.838 54.6966 25.384C54.9999 25.9213 55.1516 26.541 55.1516 27.243ZM53.2666 26.723C53.2579 26.255 53.0889 25.8823 52.7596 25.605C52.4302 25.319 52.0272 25.176 51.5506 25.176C51.0999 25.176 50.7186 25.3147 50.4066 25.592C50.1032 25.8607 49.9169 26.2377 49.8476 26.723H53.2666ZM60.458 31L58.976 28.764L57.663 31H55.713L58.066 27.386L55.687 23.798H57.741L59.21 26.021L60.536 23.798H62.486L60.12 27.386L62.512 31H60.458ZM65.6195 25.293V28.777C65.6195 29.0197 65.6758 29.1973 65.7885 29.31C65.9098 29.414 66.1092 29.466 66.3865 29.466H67.2315V31H66.0875C64.5535 31 63.7865 30.2547 63.7865 28.764V25.293H62.9285V23.798H63.7865V22.017H65.6195V23.798H67.2315V25.293H65.6195Z" fill="white"/>
<defs>
<linearGradient id="paint0_linear_180_1299" x1="161.5" y1="51" x2="231" y2="102" gradientUnits="userSpaceOnUse">
<stop stop-color="#FE1C7F"/>
<stop offset="1" stop-color="#FFD301"/>
</linearGradient>
<linearGradient id="paint1_linear_180_1299" x1="125.985" y1="41" x2="148.624" y2="47.4675" gradientUnits="userSpaceOnUse">
<stop stop-color="#FE1C7F"/>
<stop offset="1" stop-color="#FFD301"/>
</linearGradient>
</defs>
</svg>
